# xmcd
#
# Track frame offsets:
#	150
#	15053
#	29302
#	49259
#	68055
#	81839
#	99943
#	111197
#	126563
#	144945
#	160992
#	174163
#	194633
#	212368
#	228639
#	243690
#
# Disc length: 3488 seconds
#
# Revision: 0
# Processed by: cddbd v1.5.2PL0 Copyright (c) Steve Scherf et al.
# Submitted via: dBpowerAMP V4.0
#
DISCID=d30d9e10
DTITLE=Various Artist - CDX 454
DYEAR=2008
DGENRE=Country
TTITLE0=01 Rehab Feat. Hank Williams Jr. - Bartenter Song (Sittin' At A Bar)
TTITLE1=02 Jake Owen - Don't Think I Can't Love You
TTITLE2=03 Carrie Underwood - Just A Dream
TTITLE3=04 Billy Ray Cyrus - Somebody Said A Prayer
TTITLE4=05 Darryl Worley - Tequila On Ice
TTITLE5=06 LeAnn Rimes - What I Cannot Change
TTITLE6=07 George Hamilton IV and The Oil Spots (aka The Moody Brothers) - Gasoline
TTITLE7=08 Michael Scott - Ray Ray's Juke Joint
TTITLE8=09 Rick Huckaby - Ain't Enough Blacktop
TTITLE9=10 Taylor Made - Heavy Duty Beauty
TTITLE10=11 Nathan Neff - I Rock The Most
TTITLE11=12 Singletree - Is It Really Over Now
TTITLE12=13 Pete Stringfellow - It Ain't Nothin' (rebuttal to Before He Cheats)
TTITLE13=14 The O'Donnells - Live To Love Another Day
TTITLE14=15 Stephen Pride - Perfect Picture
TTITLE15=16 Craig Hand - Satisfy You
EXTD=
EXTT0=
EXTT1=
EXTT2=
EXTT3=
EXTT4=
EXTT5=
EXTT6=
EXTT7=
EXTT8=
EXTT9=
EXTT10=
EXTT11=
EXTT12=
EXTT13=
EXTT14=
EXTT15=
PLAYORDER=
